<mxfile host="app.diagrams.net" modified="2023-10-22T05:20:46.926Z" agent="Mozilla/5.0 (Windows NT 10.0; Win64; x64) AppleWebKit/537.36 (KHTML, like Gecko) Chrome/117.0.0.0 Safari/537.36" etag="1tJ0-4M4qRjK8MwZfDW9" version="22.0.6" type="github">
  <diagram id="LhRT8h1HYKdIm6Eya_rM" name="Trang-1">
    <mxGraphModel dx="1050" dy="534" grid="0" gridSize="10" guides="1" tooltips="1" connect="1" arrows="1" fold="1" page="1" pageScale="1" pageWidth="850" pageHeight="1100" math="0" shadow="0">
      <root>
        <mxCell id="0" />
        <mxCell id="1" parent="0" />
        <mxCell id="s93IzqVQbKGc1_BXv7lj-5" value="User" style="whiteSpace=wrap;html=1;align=center;" parent="1" vertex="1">
          <mxGeometry x="421" y="247" width="58" height="26" as="geometry" />
        </mxCell>
        <mxCell id="s93IzqVQbKGc1_BXv7lj-13" value="transaction" style="whiteSpace=wrap;html=1;align=center;" parent="1" vertex="1">
          <mxGeometry x="416" y="410" width="68" height="26" as="geometry" />
        </mxCell>
        <mxCell id="s93IzqVQbKGc1_BXv7lj-14" value="ticket_class" style="whiteSpace=wrap;html=1;align=center;" parent="1" vertex="1">
          <mxGeometry x="150" y="247" width="70" height="26" as="geometry" />
        </mxCell>
        <mxCell id="s93IzqVQbKGc1_BXv7lj-15" value="customer" style="whiteSpace=wrap;html=1;align=center;" parent="1" vertex="1">
          <mxGeometry x="674" y="412" width="58" height="26" as="geometry" />
        </mxCell>
        <mxCell id="s93IzqVQbKGc1_BXv7lj-16" value="airplanes" style="whiteSpace=wrap;html=1;align=center;" parent="1" vertex="1">
          <mxGeometry x="177" y="596.5" width="58" height="26" as="geometry" />
        </mxCell>
        <mxCell id="s93IzqVQbKGc1_BXv7lj-17" value="airlines" style="whiteSpace=wrap;html=1;align=center;" parent="1" vertex="1">
          <mxGeometry x="175.5" y="751" width="58" height="26" as="geometry" />
        </mxCell>
        <mxCell id="s93IzqVQbKGc1_BXv7lj-18" value="transits" style="whiteSpace=wrap;html=1;align=center;" parent="1" vertex="1">
          <mxGeometry x="722.5" y="594.5" width="58" height="26" as="geometry" />
        </mxCell>
        <mxCell id="s93IzqVQbKGc1_BXv7lj-19" value="airport" style="whiteSpace=wrap;html=1;align=center;" parent="1" vertex="1">
          <mxGeometry x="724" y="735.5" width="58" height="26" as="geometry" />
        </mxCell>
        <mxCell id="s93IzqVQbKGc1_BXv7lj-20" value="flights" style="whiteSpace=wrap;html=1;align=center;" parent="1" vertex="1">
          <mxGeometry x="426" y="594" width="58" height="26" as="geometry" />
        </mxCell>
        <mxCell id="s93IzqVQbKGc1_BXv7lj-21" value="tickets" style="whiteSpace=wrap;html=1;align=center;" parent="1" vertex="1">
          <mxGeometry x="168" y="410" width="58" height="26" as="geometry" />
        </mxCell>
        <mxCell id="s93IzqVQbKGc1_BXv7lj-27" value="tạo" style="shape=rhombus;perimeter=rhombusPerimeter;whiteSpace=wrap;html=1;align=center;" parent="1" vertex="1">
          <mxGeometry x="422" y="311" width="55" height="35" as="geometry" />
        </mxCell>
        <mxCell id="s93IzqVQbKGc1_BXv7lj-29" value="Gồm" style="shape=rhombus;perimeter=rhombusPerimeter;whiteSpace=wrap;html=1;align=center;" parent="1" vertex="1">
          <mxGeometry x="157.5" y="318" width="55" height="35" as="geometry" />
        </mxCell>
        <mxCell id="s93IzqVQbKGc1_BXv7lj-30" value="thuộc" style="shape=rhombus;perimeter=rhombusPerimeter;whiteSpace=wrap;html=1;align=center;" parent="1" vertex="1">
          <mxGeometry x="288" y="502" width="55" height="35" as="geometry" />
        </mxCell>
        <mxCell id="s93IzqVQbKGc1_BXv7lj-32" value="thuộc" style="shape=rhombus;perimeter=rhombusPerimeter;whiteSpace=wrap;html=1;align=center;" parent="1" vertex="1">
          <mxGeometry x="178.5" y="674" width="55" height="35" as="geometry" />
        </mxCell>
        <mxCell id="s93IzqVQbKGc1_BXv7lj-33" value="Thuộc vê" style="shape=rhombus;perimeter=rhombusPerimeter;whiteSpace=wrap;html=1;align=center;" parent="1" vertex="1">
          <mxGeometry x="551" y="407.5" width="64" height="35" as="geometry" />
        </mxCell>
        <mxCell id="s93IzqVQbKGc1_BXv7lj-35" value="có" style="shape=rhombus;perimeter=rhombusPerimeter;whiteSpace=wrap;html=1;align=center;" parent="1" vertex="1">
          <mxGeometry x="576" y="690" width="55" height="35" as="geometry" />
        </mxCell>
        <mxCell id="s93IzqVQbKGc1_BXv7lj-36" value="có" style="shape=rhombus;perimeter=rhombusPerimeter;whiteSpace=wrap;html=1;align=center;" parent="1" vertex="1">
          <mxGeometry x="724" y="665.5" width="55" height="35" as="geometry" />
        </mxCell>
        <mxCell id="s93IzqVQbKGc1_BXv7lj-50" value="có" style="shape=rhombus;perimeter=rhombusPerimeter;whiteSpace=wrap;html=1;align=center;" parent="1" vertex="1">
          <mxGeometry x="607" y="589.5" width="55" height="35" as="geometry" />
        </mxCell>
        <mxCell id="s93IzqVQbKGc1_BXv7lj-53" value="dùng để tạo" style="shape=rhombus;perimeter=rhombusPerimeter;whiteSpace=wrap;html=1;align=center;" parent="1" vertex="1">
          <mxGeometry x="293" y="405.5" width="55" height="35" as="geometry" />
        </mxCell>
        <mxCell id="s93IzqVQbKGc1_BXv7lj-56" value="có" style="shape=rhombus;perimeter=rhombusPerimeter;whiteSpace=wrap;html=1;align=center;" parent="1" vertex="1">
          <mxGeometry x="302" y="591" width="55" height="35" as="geometry" />
        </mxCell>
        <mxCell id="s93IzqVQbKGc1_BXv7lj-61" value="" style="endArrow=none;html=1;rounded=0;entryX=1;entryY=0.5;entryDx=0;entryDy=0;exitX=0;exitY=0;exitDx=0;exitDy=0;" parent="1" source="s93IzqVQbKGc1_BXv7lj-20" target="s93IzqVQbKGc1_BXv7lj-30" edge="1">
          <mxGeometry width="50" height="50" relative="1" as="geometry">
            <mxPoint x="424" y="593" as="sourcePoint" />
            <mxPoint x="485" y="492" as="targetPoint" />
          </mxGeometry>
        </mxCell>
        <mxCell id="s93IzqVQbKGc1_BXv7lj-63" value="" style="endArrow=none;html=1;rounded=0;entryX=1;entryY=0.5;entryDx=0;entryDy=0;exitX=0;exitY=0.5;exitDx=0;exitDy=0;" parent="1" source="s93IzqVQbKGc1_BXv7lj-30" edge="1">
          <mxGeometry width="50" height="50" relative="1" as="geometry">
            <mxPoint x="309" y="508" as="sourcePoint" />
            <mxPoint x="226" y="434" as="targetPoint" />
          </mxGeometry>
        </mxCell>
        <mxCell id="s93IzqVQbKGc1_BXv7lj-64" value="" style="endArrow=none;html=1;rounded=0;entryX=0.5;entryY=1;entryDx=0;entryDy=0;exitX=0.5;exitY=0;exitDx=0;exitDy=0;" parent="1" source="s93IzqVQbKGc1_BXv7lj-29" target="s93IzqVQbKGc1_BXv7lj-14" edge="1">
          <mxGeometry width="50" height="50" relative="1" as="geometry">
            <mxPoint x="310.5" y="321" as="sourcePoint" />
            <mxPoint x="227.5" y="247" as="targetPoint" />
          </mxGeometry>
        </mxCell>
        <mxCell id="s93IzqVQbKGc1_BXv7lj-65" value="" style="endArrow=none;html=1;rounded=0;entryX=0.5;entryY=1;entryDx=0;entryDy=0;" parent="1" target="s93IzqVQbKGc1_BXv7lj-29" edge="1">
          <mxGeometry width="50" height="50" relative="1" as="geometry">
            <mxPoint x="185" y="407" as="sourcePoint" />
            <mxPoint x="195" y="283" as="targetPoint" />
            <Array as="points" />
          </mxGeometry>
        </mxCell>
        <mxCell id="s93IzqVQbKGc1_BXv7lj-66" value="" style="endArrow=none;html=1;rounded=0;entryX=0.5;entryY=0;entryDx=0;entryDy=0;exitX=0.5;exitY=1;exitDx=0;exitDy=0;" parent="1" source="s93IzqVQbKGc1_BXv7lj-16" target="s93IzqVQbKGc1_BXv7lj-32" edge="1">
          <mxGeometry width="50" height="50" relative="1" as="geometry">
            <mxPoint x="195" y="417" as="sourcePoint" />
            <mxPoint x="195" y="363" as="targetPoint" />
            <Array as="points" />
          </mxGeometry>
        </mxCell>
        <mxCell id="s93IzqVQbKGc1_BXv7lj-68" value="" style="endArrow=none;html=1;rounded=0;entryX=0.5;entryY=1;entryDx=0;entryDy=0;" parent="1" target="s93IzqVQbKGc1_BXv7lj-32" edge="1">
          <mxGeometry width="50" height="50" relative="1" as="geometry">
            <mxPoint x="206" y="752" as="sourcePoint" />
            <mxPoint x="203" y="734" as="targetPoint" />
            <Array as="points" />
          </mxGeometry>
        </mxCell>
        <mxCell id="s93IzqVQbKGc1_BXv7lj-69" value="" style="endArrow=none;html=1;rounded=0;entryX=0;entryY=0.5;entryDx=0;entryDy=0;exitX=1;exitY=1;exitDx=0;exitDy=0;" parent="1" source="s93IzqVQbKGc1_BXv7lj-20" target="s93IzqVQbKGc1_BXv7lj-35" edge="1">
          <mxGeometry width="50" height="50" relative="1" as="geometry">
            <mxPoint x="215" y="437" as="sourcePoint" />
            <mxPoint x="215" y="383" as="targetPoint" />
            <Array as="points" />
          </mxGeometry>
        </mxCell>
        <mxCell id="s93IzqVQbKGc1_BXv7lj-70" value="" style="endArrow=none;html=1;rounded=0;entryX=0;entryY=0;entryDx=0;entryDy=0;exitX=1;exitY=0.5;exitDx=0;exitDy=0;" parent="1" source="s93IzqVQbKGc1_BXv7lj-35" target="s93IzqVQbKGc1_BXv7lj-19" edge="1">
          <mxGeometry width="50" height="50" relative="1" as="geometry">
            <mxPoint x="542.5" y="632.5" as="sourcePoint" />
            <mxPoint x="609.5" y="721.5" as="targetPoint" />
            <Array as="points" />
          </mxGeometry>
        </mxCell>
        <mxCell id="s93IzqVQbKGc1_BXv7lj-71" value="" style="endArrow=none;html=1;rounded=0;entryX=0.5;entryY=0;entryDx=0;entryDy=0;exitX=0.5;exitY=1;exitDx=0;exitDy=0;" parent="1" source="s93IzqVQbKGc1_BXv7lj-36" target="s93IzqVQbKGc1_BXv7lj-19" edge="1">
          <mxGeometry width="50" height="50" relative="1" as="geometry">
            <mxPoint x="664.5" y="721.5" as="sourcePoint" />
            <mxPoint x="730.5" y="749.5" as="targetPoint" />
            <Array as="points" />
          </mxGeometry>
        </mxCell>
        <mxCell id="s93IzqVQbKGc1_BXv7lj-72" value="" style="endArrow=none;html=1;rounded=0;entryX=0.5;entryY=1;entryDx=0;entryDy=0;exitX=0.5;exitY=0;exitDx=0;exitDy=0;" parent="1" source="s93IzqVQbKGc1_BXv7lj-36" target="s93IzqVQbKGc1_BXv7lj-18" edge="1">
          <mxGeometry width="50" height="50" relative="1" as="geometry">
            <mxPoint x="760.5" y="708.5" as="sourcePoint" />
            <mxPoint x="759.5" y="749.5" as="targetPoint" />
            <Array as="points" />
          </mxGeometry>
        </mxCell>
        <mxCell id="s93IzqVQbKGc1_BXv7lj-73" value="" style="endArrow=none;html=1;rounded=0;exitX=0.5;exitY=0;exitDx=0;exitDy=0;entryX=0.5;entryY=1;entryDx=0;entryDy=0;" parent="1" source="s93IzqVQbKGc1_BXv7lj-13" target="s93IzqVQbKGc1_BXv7lj-27" edge="1">
          <mxGeometry width="50" height="50" relative="1" as="geometry">
            <mxPoint x="736.5" y="692" as="sourcePoint" />
            <mxPoint x="466" y="322" as="targetPoint" />
            <Array as="points" />
          </mxGeometry>
        </mxCell>
        <mxCell id="s93IzqVQbKGc1_BXv7lj-74" value="" style="endArrow=none;html=1;rounded=0;exitX=0.5;exitY=1;exitDx=0;exitDy=0;entryX=0.5;entryY=0;entryDx=0;entryDy=0;" parent="1" source="s93IzqVQbKGc1_BXv7lj-5" target="s93IzqVQbKGc1_BXv7lj-27" edge="1">
          <mxGeometry width="50" height="50" relative="1" as="geometry">
            <mxPoint x="460" y="420" as="sourcePoint" />
            <mxPoint x="460" y="363" as="targetPoint" />
            <Array as="points" />
          </mxGeometry>
        </mxCell>
        <mxCell id="s93IzqVQbKGc1_BXv7lj-75" value="" style="endArrow=none;html=1;rounded=0;exitX=0;exitY=0.5;exitDx=0;exitDy=0;entryX=1;entryY=0.5;entryDx=0;entryDy=0;" parent="1" source="s93IzqVQbKGc1_BXv7lj-13" target="s93IzqVQbKGc1_BXv7lj-53" edge="1">
          <mxGeometry width="50" height="50" relative="1" as="geometry">
            <mxPoint x="470" y="430" as="sourcePoint" />
            <mxPoint x="470" y="373" as="targetPoint" />
            <Array as="points" />
          </mxGeometry>
        </mxCell>
        <mxCell id="s93IzqVQbKGc1_BXv7lj-76" value="" style="endArrow=none;html=1;rounded=0;exitX=1;exitY=0.5;exitDx=0;exitDy=0;entryX=0;entryY=0.5;entryDx=0;entryDy=0;" parent="1" source="s93IzqVQbKGc1_BXv7lj-21" target="s93IzqVQbKGc1_BXv7lj-53" edge="1">
          <mxGeometry width="50" height="50" relative="1" as="geometry">
            <mxPoint x="426" y="433" as="sourcePoint" />
            <mxPoint x="358" y="433" as="targetPoint" />
            <Array as="points" />
          </mxGeometry>
        </mxCell>
        <mxCell id="s93IzqVQbKGc1_BXv7lj-77" value="" style="endArrow=none;html=1;rounded=0;entryX=0;entryY=0.5;entryDx=0;entryDy=0;exitX=1;exitY=0.5;exitDx=0;exitDy=0;" parent="1" source="s93IzqVQbKGc1_BXv7lj-13" target="s93IzqVQbKGc1_BXv7lj-33" edge="1">
          <mxGeometry width="50" height="50" relative="1" as="geometry">
            <mxPoint x="503" y="447" as="sourcePoint" />
            <mxPoint x="368" y="443" as="targetPoint" />
            <Array as="points" />
          </mxGeometry>
        </mxCell>
        <mxCell id="s93IzqVQbKGc1_BXv7lj-78" value="" style="endArrow=none;html=1;rounded=0;exitX=1;exitY=0.5;exitDx=0;exitDy=0;entryX=0;entryY=0.5;entryDx=0;entryDy=0;" parent="1" source="s93IzqVQbKGc1_BXv7lj-33" target="s93IzqVQbKGc1_BXv7lj-15" edge="1">
          <mxGeometry width="50" height="50" relative="1" as="geometry">
            <mxPoint x="446" y="453" as="sourcePoint" />
            <mxPoint x="378" y="453" as="targetPoint" />
            <Array as="points" />
          </mxGeometry>
        </mxCell>
        <mxCell id="s93IzqVQbKGc1_BXv7lj-79" value="" style="endArrow=none;html=1;rounded=0;exitX=0;exitY=0.5;exitDx=0;exitDy=0;entryX=1;entryY=0.5;entryDx=0;entryDy=0;" parent="1" source="s93IzqVQbKGc1_BXv7lj-50" target="s93IzqVQbKGc1_BXv7lj-20" edge="1">
          <mxGeometry width="50" height="50" relative="1" as="geometry">
            <mxPoint x="456" y="463" as="sourcePoint" />
            <mxPoint x="388" y="463" as="targetPoint" />
            <Array as="points" />
          </mxGeometry>
        </mxCell>
        <mxCell id="s93IzqVQbKGc1_BXv7lj-80" value="" style="endArrow=none;html=1;rounded=0;entryX=1;entryY=0.5;entryDx=0;entryDy=0;exitX=0;exitY=0.5;exitDx=0;exitDy=0;" parent="1" source="s93IzqVQbKGc1_BXv7lj-18" target="s93IzqVQbKGc1_BXv7lj-50" edge="1">
          <mxGeometry width="50" height="50" relative="1" as="geometry">
            <mxPoint x="717.5" y="598.5" as="sourcePoint" />
            <mxPoint x="446.5" y="475.5" as="targetPoint" />
            <Array as="points" />
          </mxGeometry>
        </mxCell>
        <mxCell id="s93IzqVQbKGc1_BXv7lj-81" value="" style="endArrow=none;html=1;rounded=0;exitX=0;exitY=0.5;exitDx=0;exitDy=0;entryX=1;entryY=0.5;entryDx=0;entryDy=0;" parent="1" source="s93IzqVQbKGc1_BXv7lj-20" target="s93IzqVQbKGc1_BXv7lj-56" edge="1">
          <mxGeometry width="50" height="50" relative="1" as="geometry">
            <mxPoint x="476" y="483" as="sourcePoint" />
            <mxPoint x="408" y="483" as="targetPoint" />
            <Array as="points" />
          </mxGeometry>
        </mxCell>
        <mxCell id="s93IzqVQbKGc1_BXv7lj-82" value="" style="endArrow=none;html=1;rounded=0;exitX=1;exitY=0.5;exitDx=0;exitDy=0;entryX=0;entryY=0.5;entryDx=0;entryDy=0;" parent="1" source="s93IzqVQbKGc1_BXv7lj-16" target="s93IzqVQbKGc1_BXv7lj-56" edge="1">
          <mxGeometry width="50" height="50" relative="1" as="geometry">
            <mxPoint x="486" y="493" as="sourcePoint" />
            <mxPoint x="418" y="493" as="targetPoint" />
            <Array as="points" />
          </mxGeometry>
        </mxCell>
        <mxCell id="s93IzqVQbKGc1_BXv7lj-83" value="(1,1)" style="text;html=1;align=center;verticalAlign=middle;resizable=0;points=[];autosize=1;strokeColor=none;fillColor=none;" parent="1" vertex="1">
          <mxGeometry x="445" y="273" width="43" height="26" as="geometry" />
        </mxCell>
        <mxCell id="s93IzqVQbKGc1_BXv7lj-84" value="(0,n)" style="text;html=1;align=center;verticalAlign=middle;resizable=0;points=[];autosize=1;strokeColor=none;fillColor=none;" parent="1" vertex="1">
          <mxGeometry x="446" y="381.5" width="43" height="26" as="geometry" />
        </mxCell>
        <mxCell id="s93IzqVQbKGc1_BXv7lj-85" value="(1,1)" style="text;html=1;align=center;verticalAlign=middle;resizable=0;points=[];autosize=1;strokeColor=none;fillColor=none;" parent="1" vertex="1">
          <mxGeometry x="371" y="398" width="43" height="26" as="geometry" />
        </mxCell>
        <mxCell id="s93IzqVQbKGc1_BXv7lj-86" value="(1,1)" style="text;html=1;align=center;verticalAlign=middle;resizable=0;points=[];autosize=1;strokeColor=none;fillColor=none;" parent="1" vertex="1">
          <mxGeometry x="226" y="398" width="43" height="26" as="geometry" />
        </mxCell>
        <mxCell id="s93IzqVQbKGc1_BXv7lj-87" value="(1,n)" style="text;html=1;align=center;verticalAlign=middle;resizable=0;points=[];autosize=1;strokeColor=none;fillColor=none;" parent="1" vertex="1">
          <mxGeometry x="184" y="381.5" width="43" height="26" as="geometry" />
        </mxCell>
        <mxCell id="s93IzqVQbKGc1_BXv7lj-88" value="(1,1)" style="text;html=1;align=center;verticalAlign=middle;resizable=0;points=[];autosize=1;strokeColor=none;fillColor=none;" parent="1" vertex="1">
          <mxGeometry x="184.5" y="276" width="43" height="26" as="geometry" />
        </mxCell>
        <mxCell id="s93IzqVQbKGc1_BXv7lj-89" value="(1,n)" style="text;html=1;align=center;verticalAlign=middle;resizable=0;points=[];autosize=1;strokeColor=none;fillColor=none;" parent="1" vertex="1">
          <mxGeometry x="485" y="398" width="43" height="26" as="geometry" />
        </mxCell>
        <mxCell id="s93IzqVQbKGc1_BXv7lj-93" value="(1,1)" style="text;html=1;align=center;verticalAlign=middle;resizable=0;points=[];autosize=1;strokeColor=none;fillColor=none;" parent="1" vertex="1">
          <mxGeometry x="631" y="402" width="43" height="26" as="geometry" />
        </mxCell>
        <mxCell id="s93IzqVQbKGc1_BXv7lj-94" value="(1,1)" style="text;html=1;align=center;verticalAlign=middle;resizable=0;points=[];autosize=1;strokeColor=none;fillColor=none;" parent="1" vertex="1">
          <mxGeometry x="369" y="566" width="43" height="26" as="geometry" />
        </mxCell>
        <mxCell id="s93IzqVQbKGc1_BXv7lj-96" value="(0,n)" style="text;html=1;align=center;verticalAlign=middle;resizable=0;points=[];autosize=1;strokeColor=none;fillColor=none;" parent="1" vertex="1">
          <mxGeometry x="201" y="445" width="43" height="26" as="geometry" />
        </mxCell>
        <mxCell id="s93IzqVQbKGc1_BXv7lj-97" value="(0.n)" style="text;html=1;align=center;verticalAlign=middle;resizable=0;points=[];autosize=1;strokeColor=none;fillColor=none;" parent="1" vertex="1">
          <mxGeometry x="378" y="587.5" width="43" height="26" as="geometry" />
        </mxCell>
        <mxCell id="s93IzqVQbKGc1_BXv7lj-98" value="(1,1)" style="text;html=1;align=center;verticalAlign=middle;resizable=0;points=[];autosize=1;strokeColor=none;fillColor=none;" parent="1" vertex="1">
          <mxGeometry x="237" y="612" width="43" height="26" as="geometry" />
        </mxCell>
        <mxCell id="s93IzqVQbKGc1_BXv7lj-99" value="(1,1)" style="text;html=1;align=center;verticalAlign=middle;resizable=0;points=[];autosize=1;strokeColor=none;fillColor=none;" parent="1" vertex="1">
          <mxGeometry x="487" y="587" width="43" height="26" as="geometry" />
        </mxCell>
        <mxCell id="s93IzqVQbKGc1_BXv7lj-100" value="(0,n)" style="text;html=1;align=center;verticalAlign=middle;resizable=0;points=[];autosize=1;strokeColor=none;fillColor=none;" parent="1" vertex="1">
          <mxGeometry x="677" y="582" width="43" height="26" as="geometry" />
        </mxCell>
        <mxCell id="s93IzqVQbKGc1_BXv7lj-101" value="(1,n)" style="text;html=1;align=center;verticalAlign=middle;resizable=0;points=[];autosize=1;strokeColor=none;fillColor=none;" parent="1" vertex="1">
          <mxGeometry x="753.5" y="622.5" width="43" height="26" as="geometry" />
        </mxCell>
        <mxCell id="s93IzqVQbKGc1_BXv7lj-102" value="(1,1)" style="text;html=1;align=center;verticalAlign=middle;resizable=0;points=[];autosize=1;strokeColor=none;fillColor=none;" parent="1" vertex="1">
          <mxGeometry x="720" y="709" width="43" height="26" as="geometry" />
        </mxCell>
        <mxCell id="s93IzqVQbKGc1_BXv7lj-103" value="(1,n)" style="text;html=1;align=center;verticalAlign=middle;resizable=0;points=[];autosize=1;strokeColor=none;fillColor=none;" parent="1" vertex="1">
          <mxGeometry x="471" y="624.5" width="43" height="26" as="geometry" />
        </mxCell>
        <mxCell id="s93IzqVQbKGc1_BXv7lj-104" value="(2,2)" style="text;html=1;align=center;verticalAlign=middle;resizable=0;points=[];autosize=1;strokeColor=none;fillColor=none;" parent="1" vertex="1">
          <mxGeometry x="682.25" y="725" width="43" height="26" as="geometry" />
        </mxCell>
        <mxCell id="s93IzqVQbKGc1_BXv7lj-105" value="(1,n)" style="text;html=1;align=center;verticalAlign=middle;resizable=0;points=[];autosize=1;strokeColor=none;fillColor=none;" parent="1" vertex="1">
          <mxGeometry x="164.5" y="624.5" width="43" height="26" as="geometry" />
        </mxCell>
        <mxCell id="s93IzqVQbKGc1_BXv7lj-106" value="(1,1)" style="text;html=1;align=center;verticalAlign=middle;resizable=0;points=[];autosize=1;strokeColor=none;fillColor=none;" parent="1" vertex="1">
          <mxGeometry x="161" y="725" width="43" height="26" as="geometry" />
        </mxCell>
        <mxCell id="JfQ3I1va42cUBEv4WvLF-2" value="password" style="ellipse;whiteSpace=wrap;html=1;align=center;" parent="1" vertex="1">
          <mxGeometry x="531" y="188" width="78.5" height="35" as="geometry" />
        </mxCell>
        <mxCell id="JfQ3I1va42cUBEv4WvLF-3" value="gender" style="ellipse;whiteSpace=wrap;html=1;align=center;" parent="1" vertex="1">
          <mxGeometry x="398.25" y="133" width="78.5" height="35" as="geometry" />
        </mxCell>
        <mxCell id="JfQ3I1va42cUBEv4WvLF-4" value="address" style="ellipse;whiteSpace=wrap;html=1;align=center;" parent="1" vertex="1">
          <mxGeometry x="314" y="204" width="78.5" height="35" as="geometry" />
        </mxCell>
        <mxCell id="JfQ3I1va42cUBEv4WvLF-5" value="class_type" style="ellipse;whiteSpace=wrap;html=1;align=center;" parent="1" vertex="1">
          <mxGeometry x="68" y="198" width="78.5" height="35" as="geometry" />
        </mxCell>
        <mxCell id="JfQ3I1va42cUBEv4WvLF-6" value="amail_address" style="ellipse;whiteSpace=wrap;html=1;align=center;" parent="1" vertex="1">
          <mxGeometry x="539" y="235" width="101" height="35" as="geometry" />
        </mxCell>
        <mxCell id="JfQ3I1va42cUBEv4WvLF-7" value="status" style="ellipse;whiteSpace=wrap;html=1;align=center;" parent="1" vertex="1">
          <mxGeometry x="314" y="247" width="78.5" height="35" as="geometry" />
        </mxCell>
        <mxCell id="JfQ3I1va42cUBEv4WvLF-8" value="phone_number" style="ellipse;whiteSpace=wrap;html=1;align=center;" parent="1" vertex="1">
          <mxGeometry x="317" y="165" width="99" height="35" as="geometry" />
        </mxCell>
        <mxCell id="JfQ3I1va42cUBEv4WvLF-9" value="user_name" style="ellipse;whiteSpace=wrap;html=1;align=center;" parent="1" vertex="1">
          <mxGeometry x="521" y="276" width="78.5" height="35" as="geometry" />
        </mxCell>
        <mxCell id="JfQ3I1va42cUBEv4WvLF-10" value="role" style="ellipse;whiteSpace=wrap;html=1;align=center;" parent="1" vertex="1">
          <mxGeometry x="485" y="146" width="78.5" height="35" as="geometry" />
        </mxCell>
        <mxCell id="JfQ3I1va42cUBEv4WvLF-15" value="user_id" style="ellipse;whiteSpace=wrap;html=1;align=center;fontStyle=4;" parent="1" vertex="1">
          <mxGeometry x="333" y="286" width="79" height="35" as="geometry" />
        </mxCell>
        <mxCell id="JfQ3I1va42cUBEv4WvLF-16" value="class_id" style="ellipse;whiteSpace=wrap;html=1;align=center;fontStyle=4;" parent="1" vertex="1">
          <mxGeometry x="187" y="193" width="82" height="38" as="geometry" />
        </mxCell>
        <mxCell id="JfQ3I1va42cUBEv4WvLF-17" value="ticket_id" style="ellipse;whiteSpace=wrap;html=1;align=center;fontStyle=4;" parent="1" vertex="1">
          <mxGeometry x="70.25" y="381.5" width="74" height="30" as="geometry" />
        </mxCell>
        <mxCell id="JfQ3I1va42cUBEv4WvLF-18" value="seat_numb" style="ellipse;whiteSpace=wrap;html=1;align=center;" parent="1" vertex="1">
          <mxGeometry x="134" y="471" width="78.5" height="35" as="geometry" />
        </mxCell>
        <mxCell id="JfQ3I1va42cUBEv4WvLF-19" value="price_vnd" style="ellipse;whiteSpace=wrap;html=1;align=center;" parent="1" vertex="1">
          <mxGeometry x="223.5" y="363" width="78.5" height="35" as="geometry" />
        </mxCell>
        <mxCell id="JfQ3I1va42cUBEv4WvLF-20" value="price_usd" style="ellipse;whiteSpace=wrap;html=1;align=center;" parent="1" vertex="1">
          <mxGeometry x="71.5" y="428" width="78.5" height="35" as="geometry" />
        </mxCell>
        <mxCell id="JfQ3I1va42cUBEv4WvLF-22" value="transaction_id" style="ellipse;whiteSpace=wrap;html=1;align=center;fontStyle=4;" parent="1" vertex="1">
          <mxGeometry x="327" y="448" width="99" height="30" as="geometry" />
        </mxCell>
        <mxCell id="JfQ3I1va42cUBEv4WvLF-23" value="note" style="ellipse;whiteSpace=wrap;html=1;align=center;" parent="1" vertex="1">
          <mxGeometry x="481" y="358" width="78.5" height="35" as="geometry" />
        </mxCell>
        <mxCell id="JfQ3I1va42cUBEv4WvLF-24" value="booking_code" style="ellipse;whiteSpace=wrap;html=1;align=center;" parent="1" vertex="1">
          <mxGeometry x="402.5" y="474" width="95" height="35" as="geometry" />
        </mxCell>
        <mxCell id="JfQ3I1va42cUBEv4WvLF-25" value="booking_date" style="ellipse;whiteSpace=wrap;html=1;align=center;" parent="1" vertex="1">
          <mxGeometry x="489" y="448" width="84" height="35" as="geometry" />
        </mxCell>
        <mxCell id="JfQ3I1va42cUBEv4WvLF-26" value="custom_id" style="ellipse;whiteSpace=wrap;html=1;align=center;fontStyle=4;" parent="1" vertex="1">
          <mxGeometry x="594" y="360.5" width="99" height="30" as="geometry" />
        </mxCell>
        <mxCell id="JfQ3I1va42cUBEv4WvLF-27" value="phone_number" style="ellipse;whiteSpace=wrap;html=1;align=center;" parent="1" vertex="1">
          <mxGeometry x="772" y="346" width="102" height="35" as="geometry" />
        </mxCell>
        <mxCell id="JfQ3I1va42cUBEv4WvLF-28" value="email_address" style="ellipse;whiteSpace=wrap;html=1;align=center;" parent="1" vertex="1">
          <mxGeometry x="750" y="413" width="95.5" height="35" as="geometry" />
        </mxCell>
        <mxCell id="JfQ3I1va42cUBEv4WvLF-29" value="custom_name" style="ellipse;whiteSpace=wrap;html=1;align=center;" parent="1" vertex="1">
          <mxGeometry x="680" y="332" width="93" height="35" as="geometry" />
        </mxCell>
        <mxCell id="JfQ3I1va42cUBEv4WvLF-30" value="date_of_birth" style="ellipse;whiteSpace=wrap;html=1;align=center;" parent="1" vertex="1">
          <mxGeometry x="592" y="452" width="90.25" height="35" as="geometry" />
        </mxCell>
        <mxCell id="JfQ3I1va42cUBEv4WvLF-31" value="gender" style="ellipse;whiteSpace=wrap;html=1;align=center;" parent="1" vertex="1">
          <mxGeometry x="682.25" y="481" width="78.5" height="35" as="geometry" />
        </mxCell>
        <mxCell id="JfQ3I1va42cUBEv4WvLF-32" value="id_number" style="ellipse;whiteSpace=wrap;html=1;align=center;" parent="1" vertex="1">
          <mxGeometry x="759" y="463" width="78.5" height="35" as="geometry" />
        </mxCell>
        <mxCell id="JfQ3I1va42cUBEv4WvLF-35" value="airline_id" style="ellipse;whiteSpace=wrap;html=1;align=center;fontStyle=4;" parent="1" vertex="1">
          <mxGeometry x="110" y="788" width="74" height="30" as="geometry" />
        </mxCell>
        <mxCell id="JfQ3I1va42cUBEv4WvLF-36" value="air_name" style="ellipse;whiteSpace=wrap;html=1;align=center;" parent="1" vertex="1">
          <mxGeometry x="226" y="783" width="78.5" height="35" as="geometry" />
        </mxCell>
        <mxCell id="JfQ3I1va42cUBEv4WvLF-37" value="airplane_id" style="ellipse;whiteSpace=wrap;html=1;align=center;fontStyle=4;" parent="1" vertex="1">
          <mxGeometry x="37" y="544" width="105" height="30" as="geometry" />
        </mxCell>
        <mxCell id="JfQ3I1va42cUBEv4WvLF-38" value="description" style="ellipse;whiteSpace=wrap;html=1;align=center;" parent="1" vertex="1">
          <mxGeometry x="238.5" y="548" width="78.5" height="35" as="geometry" />
        </mxCell>
        <mxCell id="JfQ3I1va42cUBEv4WvLF-39" value="number_of_seats" style="ellipse;whiteSpace=wrap;html=1;align=center;" parent="1" vertex="1">
          <mxGeometry x="27" y="627" width="115" height="35" as="geometry" />
        </mxCell>
        <mxCell id="JfQ3I1va42cUBEv4WvLF-40" value="airplane_number" style="ellipse;whiteSpace=wrap;html=1;align=center;" parent="1" vertex="1">
          <mxGeometry x="27" y="583" width="110.5" height="35" as="geometry" />
        </mxCell>
        <mxCell id="JfQ3I1va42cUBEv4WvLF-41" value="airplane_type" style="ellipse;whiteSpace=wrap;html=1;align=center;" parent="1" vertex="1">
          <mxGeometry x="148.5" y="541.5" width="86.5" height="35" as="geometry" />
        </mxCell>
        <mxCell id="JfQ3I1va42cUBEv4WvLF-42" value="flight_id" style="ellipse;whiteSpace=wrap;html=1;align=center;fontStyle=4;" parent="1" vertex="1">
          <mxGeometry x="302" y="632" width="74" height="30" as="geometry" />
        </mxCell>
        <mxCell id="JfQ3I1va42cUBEv4WvLF-43" value="flight_date" style="ellipse;whiteSpace=wrap;html=1;align=center;" parent="1" vertex="1">
          <mxGeometry x="531" y="622.5" width="78.5" height="35" as="geometry" />
        </mxCell>
        <mxCell id="JfQ3I1va42cUBEv4WvLF-44" value="destination" style="ellipse;whiteSpace=wrap;html=1;align=center;" parent="1" vertex="1">
          <mxGeometry x="353.25" y="712" width="78.5" height="35" as="geometry" />
        </mxCell>
        <mxCell id="JfQ3I1va42cUBEv4WvLF-45" value="departure_point" style="ellipse;whiteSpace=wrap;html=1;align=center;" parent="1" vertex="1">
          <mxGeometry x="319.75" y="665.5" width="78.5" height="35" as="geometry" />
        </mxCell>
        <mxCell id="JfQ3I1va42cUBEv4WvLF-47" value="status" style="ellipse;whiteSpace=wrap;html=1;align=center;" parent="1" vertex="1">
          <mxGeometry x="383" y="523" width="78.5" height="35" as="geometry" />
        </mxCell>
        <mxCell id="JfQ3I1va42cUBEv4WvLF-48" value="transits" style="ellipse;whiteSpace=wrap;html=1;align=center;" parent="1" vertex="1">
          <mxGeometry x="464" y="513" width="78.5" height="35" as="geometry" />
        </mxCell>
        <mxCell id="JfQ3I1va42cUBEv4WvLF-49" value="remaining tickets" style="ellipse;whiteSpace=wrap;html=1;align=center;" parent="1" vertex="1">
          <mxGeometry x="559.5" y="515" width="78.5" height="35" as="geometry" />
        </mxCell>
        <mxCell id="JfQ3I1va42cUBEv4WvLF-50" value="arrival_time" style="ellipse;whiteSpace=wrap;html=1;align=center;" parent="1" vertex="1">
          <mxGeometry x="461.5" y="700.5" width="78.5" height="35" as="geometry" />
        </mxCell>
        <mxCell id="JfQ3I1va42cUBEv4WvLF-51" value="departure_time" style="ellipse;whiteSpace=wrap;html=1;align=center;" parent="1" vertex="1">
          <mxGeometry x="414" y="742" width="78.5" height="35" as="geometry" />
        </mxCell>
        <mxCell id="JfQ3I1va42cUBEv4WvLF-52" value="total_tickets" style="ellipse;whiteSpace=wrap;html=1;align=center;" parent="1" vertex="1">
          <mxGeometry x="545" y="553" width="78.5" height="35" as="geometry" />
        </mxCell>
        <mxCell id="JfQ3I1va42cUBEv4WvLF-54" value="aiirport_id" style="ellipse;whiteSpace=wrap;html=1;align=center;fontStyle=4;" parent="1" vertex="1">
          <mxGeometry x="615.5" y="753" width="74" height="30" as="geometry" />
        </mxCell>
        <mxCell id="JfQ3I1va42cUBEv4WvLF-55" value="city" style="ellipse;whiteSpace=wrap;html=1;align=center;" parent="1" vertex="1">
          <mxGeometry x="782" y="769" width="78.5" height="35" as="geometry" />
        </mxCell>
        <mxCell id="JfQ3I1va42cUBEv4WvLF-56" value="address" style="ellipse;whiteSpace=wrap;html=1;align=center;" parent="1" vertex="1">
          <mxGeometry x="745.5" y="804" width="78.5" height="35" as="geometry" />
        </mxCell>
        <mxCell id="JfQ3I1va42cUBEv4WvLF-57" value="country" style="ellipse;whiteSpace=wrap;html=1;align=center;" parent="1" vertex="1">
          <mxGeometry x="779" y="700" width="78.5" height="35" as="geometry" />
        </mxCell>
        <mxCell id="JfQ3I1va42cUBEv4WvLF-58" value="coordinates" style="ellipse;whiteSpace=wrap;html=1;align=center;" parent="1" vertex="1">
          <mxGeometry x="667" y="821" width="78.5" height="35" as="geometry" />
        </mxCell>
        <mxCell id="JfQ3I1va42cUBEv4WvLF-59" value="airport_name" style="ellipse;whiteSpace=wrap;html=1;align=center;" parent="1" vertex="1">
          <mxGeometry x="626" y="788" width="78.5" height="35" as="geometry" />
        </mxCell>
        <mxCell id="JfQ3I1va42cUBEv4WvLF-61" value="transit_id" style="ellipse;whiteSpace=wrap;html=1;align=center;fontStyle=4;" parent="1" vertex="1">
          <mxGeometry x="738" y="553" width="74" height="30" as="geometry" />
        </mxCell>
        <mxCell id="JfQ3I1va42cUBEv4WvLF-64" value="" style="endArrow=none;html=1;rounded=0;exitX=0.5;exitY=1;exitDx=0;exitDy=0;entryX=0;entryY=0;entryDx=0;entryDy=0;" parent="1" source="JfQ3I1va42cUBEv4WvLF-5" target="s93IzqVQbKGc1_BXv7lj-14" edge="1">
          <mxGeometry relative="1" as="geometry">
            <mxPoint x="171" y="138" as="sourcePoint" />
            <mxPoint x="62" y="141" as="targetPoint" />
          </mxGeometry>
        </mxCell>
        <mxCell id="JfQ3I1va42cUBEv4WvLF-65" value="" style="endArrow=none;html=1;rounded=0;exitX=0.5;exitY=1;exitDx=0;exitDy=0;entryX=0.5;entryY=0;entryDx=0;entryDy=0;" parent="1" source="JfQ3I1va42cUBEv4WvLF-16" target="s93IzqVQbKGc1_BXv7lj-14" edge="1">
          <mxGeometry relative="1" as="geometry">
            <mxPoint x="181" y="148" as="sourcePoint" />
            <mxPoint x="72" y="151" as="targetPoint" />
          </mxGeometry>
        </mxCell>
        <mxCell id="JfQ3I1va42cUBEv4WvLF-66" value="" style="endArrow=none;html=1;rounded=0;exitX=1;exitY=0.5;exitDx=0;exitDy=0;entryX=0.25;entryY=0;entryDx=0;entryDy=0;" parent="1" source="JfQ3I1va42cUBEv4WvLF-8" target="s93IzqVQbKGc1_BXv7lj-5" edge="1">
          <mxGeometry relative="1" as="geometry">
            <mxPoint x="191" y="158" as="sourcePoint" />
            <mxPoint x="82" y="161" as="targetPoint" />
          </mxGeometry>
        </mxCell>
        <mxCell id="JfQ3I1va42cUBEv4WvLF-67" value="" style="endArrow=none;html=1;rounded=0;exitX=1;exitY=0.5;exitDx=0;exitDy=0;entryX=0;entryY=0.25;entryDx=0;entryDy=0;" parent="1" source="JfQ3I1va42cUBEv4WvLF-4" target="s93IzqVQbKGc1_BXv7lj-5" edge="1">
          <mxGeometry relative="1" as="geometry">
            <mxPoint x="201" y="168" as="sourcePoint" />
            <mxPoint x="92" y="171" as="targetPoint" />
          </mxGeometry>
        </mxCell>
        <mxCell id="JfQ3I1va42cUBEv4WvLF-68" value="" style="endArrow=none;html=1;rounded=0;exitX=1;exitY=0.5;exitDx=0;exitDy=0;entryX=0;entryY=0.5;entryDx=0;entryDy=0;" parent="1" source="JfQ3I1va42cUBEv4WvLF-7" target="s93IzqVQbKGc1_BXv7lj-5" edge="1">
          <mxGeometry relative="1" as="geometry">
            <mxPoint x="211" y="178" as="sourcePoint" />
            <mxPoint x="102" y="181" as="targetPoint" />
          </mxGeometry>
        </mxCell>
        <mxCell id="JfQ3I1va42cUBEv4WvLF-69" value="" style="endArrow=none;html=1;rounded=0;exitX=1;exitY=0.5;exitDx=0;exitDy=0;entryX=0;entryY=1;entryDx=0;entryDy=0;" parent="1" source="JfQ3I1va42cUBEv4WvLF-15" target="s93IzqVQbKGc1_BXv7lj-5" edge="1">
          <mxGeometry relative="1" as="geometry">
            <mxPoint x="221" y="188" as="sourcePoint" />
            <mxPoint x="112" y="191" as="targetPoint" />
          </mxGeometry>
        </mxCell>
        <mxCell id="JfQ3I1va42cUBEv4WvLF-70" value="" style="endArrow=none;html=1;rounded=0;exitX=0;exitY=0.5;exitDx=0;exitDy=0;entryX=0.837;entryY=-0.192;entryDx=0;entryDy=0;entryPerimeter=0;" parent="1" source="JfQ3I1va42cUBEv4WvLF-9" target="s93IzqVQbKGc1_BXv7lj-83" edge="1">
          <mxGeometry relative="1" as="geometry">
            <mxPoint x="231" y="198" as="sourcePoint" />
            <mxPoint x="122" y="201" as="targetPoint" />
          </mxGeometry>
        </mxCell>
        <mxCell id="JfQ3I1va42cUBEv4WvLF-71" value="" style="endArrow=none;html=1;rounded=0;exitX=0.5;exitY=1;exitDx=0;exitDy=0;entryX=0.5;entryY=0;entryDx=0;entryDy=0;" parent="1" source="JfQ3I1va42cUBEv4WvLF-3" target="s93IzqVQbKGc1_BXv7lj-5" edge="1">
          <mxGeometry relative="1" as="geometry">
            <mxPoint x="212" y="85" as="sourcePoint" />
            <mxPoint x="53" y="88" as="targetPoint" />
          </mxGeometry>
        </mxCell>
        <mxCell id="JfQ3I1va42cUBEv4WvLF-73" value="" style="endArrow=none;html=1;rounded=0;exitX=0;exitY=1;exitDx=0;exitDy=0;entryX=0.75;entryY=0;entryDx=0;entryDy=0;" parent="1" source="JfQ3I1va42cUBEv4WvLF-10" target="s93IzqVQbKGc1_BXv7lj-5" edge="1">
          <mxGeometry relative="1" as="geometry">
            <mxPoint x="222" y="95" as="sourcePoint" />
            <mxPoint x="63" y="98" as="targetPoint" />
          </mxGeometry>
        </mxCell>
        <mxCell id="JfQ3I1va42cUBEv4WvLF-74" value="" style="endArrow=none;html=1;rounded=0;exitX=0;exitY=0.5;exitDx=0;exitDy=0;entryX=1;entryY=0.25;entryDx=0;entryDy=0;" parent="1" source="JfQ3I1va42cUBEv4WvLF-2" target="s93IzqVQbKGc1_BXv7lj-5" edge="1">
          <mxGeometry relative="1" as="geometry">
            <mxPoint x="232" y="105" as="sourcePoint" />
            <mxPoint x="73" y="108" as="targetPoint" />
          </mxGeometry>
        </mxCell>
        <mxCell id="JfQ3I1va42cUBEv4WvLF-75" value="" style="endArrow=none;html=1;rounded=0;exitX=0;exitY=0.5;exitDx=0;exitDy=0;entryX=1;entryY=0.5;entryDx=0;entryDy=0;" parent="1" source="JfQ3I1va42cUBEv4WvLF-6" target="s93IzqVQbKGc1_BXv7lj-5" edge="1">
          <mxGeometry relative="1" as="geometry">
            <mxPoint x="242" y="115" as="sourcePoint" />
            <mxPoint x="83" y="118" as="targetPoint" />
          </mxGeometry>
        </mxCell>
        <mxCell id="JfQ3I1va42cUBEv4WvLF-76" value="" style="endArrow=none;html=1;rounded=0;exitX=1;exitY=0.5;exitDx=0;exitDy=0;entryX=0;entryY=0.25;entryDx=0;entryDy=0;" parent="1" source="JfQ3I1va42cUBEv4WvLF-17" target="s93IzqVQbKGc1_BXv7lj-21" edge="1">
          <mxGeometry relative="1" as="geometry">
            <mxPoint x="252" y="125" as="sourcePoint" />
            <mxPoint x="93" y="128" as="targetPoint" />
          </mxGeometry>
        </mxCell>
        <mxCell id="JfQ3I1va42cUBEv4WvLF-77" value="" style="endArrow=none;html=1;rounded=0;entryX=1;entryY=0.5;entryDx=0;entryDy=0;exitX=0;exitY=1;exitDx=0;exitDy=0;" parent="1" source="s93IzqVQbKGc1_BXv7lj-21" target="JfQ3I1va42cUBEv4WvLF-20" edge="1">
          <mxGeometry relative="1" as="geometry">
            <mxPoint x="262" y="135" as="sourcePoint" />
            <mxPoint x="103" y="138" as="targetPoint" />
          </mxGeometry>
        </mxCell>
        <mxCell id="JfQ3I1va42cUBEv4WvLF-78" value="" style="endArrow=none;html=1;rounded=0;entryX=0.5;entryY=1;entryDx=0;entryDy=0;exitX=1;exitY=0.25;exitDx=0;exitDy=0;" parent="1" source="s93IzqVQbKGc1_BXv7lj-21" target="JfQ3I1va42cUBEv4WvLF-19" edge="1">
          <mxGeometry relative="1" as="geometry">
            <mxPoint x="272" y="145" as="sourcePoint" />
            <mxPoint x="113" y="148" as="targetPoint" />
          </mxGeometry>
        </mxCell>
        <mxCell id="JfQ3I1va42cUBEv4WvLF-79" value="" style="endArrow=none;html=1;rounded=0;exitX=0.25;exitY=1;exitDx=0;exitDy=0;" parent="1" source="s93IzqVQbKGc1_BXv7lj-21" target="JfQ3I1va42cUBEv4WvLF-18" edge="1">
          <mxGeometry relative="1" as="geometry">
            <mxPoint x="193" y="440" as="sourcePoint" />
            <mxPoint x="123" y="158" as="targetPoint" />
          </mxGeometry>
        </mxCell>
        <mxCell id="JfQ3I1va42cUBEv4WvLF-84" value="" style="endArrow=none;html=1;rounded=0;exitX=0.5;exitY=1;exitDx=0;exitDy=0;entryX=0;entryY=0;entryDx=0;entryDy=0;" parent="1" source="JfQ3I1va42cUBEv4WvLF-26" target="s93IzqVQbKGc1_BXv7lj-15" edge="1">
          <mxGeometry relative="1" as="geometry">
            <mxPoint x="255" y="124" as="sourcePoint" />
            <mxPoint x="96" y="127" as="targetPoint" />
          </mxGeometry>
        </mxCell>
        <mxCell id="JfQ3I1va42cUBEv4WvLF-85" value="" style="endArrow=none;html=1;rounded=0;entryX=0.5;entryY=1;entryDx=0;entryDy=0;exitX=0.5;exitY=0;exitDx=0;exitDy=0;" parent="1" source="s93IzqVQbKGc1_BXv7lj-15" target="JfQ3I1va42cUBEv4WvLF-29" edge="1">
          <mxGeometry relative="1" as="geometry">
            <mxPoint x="265" y="134" as="sourcePoint" />
            <mxPoint x="106" y="137" as="targetPoint" />
          </mxGeometry>
        </mxCell>
        <mxCell id="JfQ3I1va42cUBEv4WvLF-86" value="" style="endArrow=none;html=1;rounded=0;exitX=0;exitY=0.5;exitDx=0;exitDy=0;entryX=1;entryY=0;entryDx=0;entryDy=0;" parent="1" source="JfQ3I1va42cUBEv4WvLF-27" target="s93IzqVQbKGc1_BXv7lj-15" edge="1">
          <mxGeometry relative="1" as="geometry">
            <mxPoint x="275" y="144" as="sourcePoint" />
            <mxPoint x="116" y="147" as="targetPoint" />
          </mxGeometry>
        </mxCell>
        <mxCell id="JfQ3I1va42cUBEv4WvLF-87" value="" style="endArrow=none;html=1;rounded=0;exitX=0;exitY=0.5;exitDx=0;exitDy=0;entryX=1;entryY=0.5;entryDx=0;entryDy=0;" parent="1" source="JfQ3I1va42cUBEv4WvLF-28" target="s93IzqVQbKGc1_BXv7lj-15" edge="1">
          <mxGeometry relative="1" as="geometry">
            <mxPoint x="285" y="154" as="sourcePoint" />
            <mxPoint x="126" y="157" as="targetPoint" />
          </mxGeometry>
        </mxCell>
        <mxCell id="JfQ3I1va42cUBEv4WvLF-89" value="" style="endArrow=none;html=1;rounded=0;entryX=0;entryY=0;entryDx=0;entryDy=0;exitX=1;exitY=1;exitDx=0;exitDy=0;" parent="1" source="s93IzqVQbKGc1_BXv7lj-15" target="JfQ3I1va42cUBEv4WvLF-32" edge="1">
          <mxGeometry relative="1" as="geometry">
            <mxPoint x="788" y="85" as="sourcePoint" />
            <mxPoint x="629" y="88" as="targetPoint" />
          </mxGeometry>
        </mxCell>
        <mxCell id="JfQ3I1va42cUBEv4WvLF-90" value="" style="endArrow=none;html=1;rounded=0;entryX=0.5;entryY=0;entryDx=0;entryDy=0;exitX=0.5;exitY=1;exitDx=0;exitDy=0;" parent="1" source="s93IzqVQbKGc1_BXv7lj-15" target="JfQ3I1va42cUBEv4WvLF-31" edge="1">
          <mxGeometry relative="1" as="geometry">
            <mxPoint x="798" y="95" as="sourcePoint" />
            <mxPoint x="639" y="98" as="targetPoint" />
          </mxGeometry>
        </mxCell>
        <mxCell id="JfQ3I1va42cUBEv4WvLF-91" value="" style="endArrow=none;html=1;rounded=0;entryX=0.5;entryY=0;entryDx=0;entryDy=0;exitX=0;exitY=1;exitDx=0;exitDy=0;" parent="1" source="s93IzqVQbKGc1_BXv7lj-15" target="JfQ3I1va42cUBEv4WvLF-30" edge="1">
          <mxGeometry relative="1" as="geometry">
            <mxPoint x="661" y="437" as="sourcePoint" />
            <mxPoint x="649" y="108" as="targetPoint" />
          </mxGeometry>
        </mxCell>
        <mxCell id="JfQ3I1va42cUBEv4WvLF-92" value="" style="endArrow=none;html=1;rounded=0;entryX=0.5;entryY=1;entryDx=0;entryDy=0;exitX=0.5;exitY=0;exitDx=0;exitDy=0;" parent="1" source="s93IzqVQbKGc1_BXv7lj-18" target="JfQ3I1va42cUBEv4WvLF-61" edge="1">
          <mxGeometry relative="1" as="geometry">
            <mxPoint x="818" y="115" as="sourcePoint" />
            <mxPoint x="659" y="118" as="targetPoint" />
          </mxGeometry>
        </mxCell>
        <mxCell id="JfQ3I1va42cUBEv4WvLF-93" value="" style="endArrow=none;html=1;rounded=0;entryX=0.5;entryY=1;entryDx=0;entryDy=0;exitX=1;exitY=0.75;exitDx=0;exitDy=0;" parent="1" source="s93IzqVQbKGc1_BXv7lj-19" target="JfQ3I1va42cUBEv4WvLF-57" edge="1">
          <mxGeometry relative="1" as="geometry">
            <mxPoint x="828" y="125" as="sourcePoint" />
            <mxPoint x="669" y="128" as="targetPoint" />
          </mxGeometry>
        </mxCell>
        <mxCell id="JfQ3I1va42cUBEv4WvLF-95" value="" style="endArrow=none;html=1;rounded=0;entryX=0;entryY=0;entryDx=0;entryDy=0;exitX=0.75;exitY=1;exitDx=0;exitDy=0;" parent="1" source="s93IzqVQbKGc1_BXv7lj-19" target="JfQ3I1va42cUBEv4WvLF-55" edge="1">
          <mxGeometry relative="1" as="geometry">
            <mxPoint x="848" y="145" as="sourcePoint" />
            <mxPoint x="689" y="148" as="targetPoint" />
          </mxGeometry>
        </mxCell>
        <mxCell id="JfQ3I1va42cUBEv4WvLF-96" value="" style="endArrow=none;html=1;rounded=0;entryX=0.32;entryY=0.045;entryDx=0;entryDy=0;entryPerimeter=0;exitX=0.5;exitY=1;exitDx=0;exitDy=0;" parent="1" source="s93IzqVQbKGc1_BXv7lj-19" target="JfQ3I1va42cUBEv4WvLF-56" edge="1">
          <mxGeometry relative="1" as="geometry">
            <mxPoint x="858" y="155" as="sourcePoint" />
            <mxPoint x="699" y="158" as="targetPoint" />
          </mxGeometry>
        </mxCell>
        <mxCell id="JfQ3I1va42cUBEv4WvLF-97" value="" style="endArrow=none;html=1;rounded=0;entryX=0.5;entryY=0;entryDx=0;entryDy=0;exitX=0.25;exitY=1;exitDx=0;exitDy=0;" parent="1" source="s93IzqVQbKGc1_BXv7lj-19" target="JfQ3I1va42cUBEv4WvLF-58" edge="1">
          <mxGeometry relative="1" as="geometry">
            <mxPoint x="741" y="756" as="sourcePoint" />
            <mxPoint x="709" y="168" as="targetPoint" />
          </mxGeometry>
        </mxCell>
        <mxCell id="JfQ3I1va42cUBEv4WvLF-98" value="" style="endArrow=none;html=1;rounded=0;exitX=1;exitY=0;exitDx=0;exitDy=0;entryX=0;entryY=1;entryDx=0;entryDy=0;" parent="1" source="JfQ3I1va42cUBEv4WvLF-59" target="s93IzqVQbKGc1_BXv7lj-19" edge="1">
          <mxGeometry relative="1" as="geometry">
            <mxPoint x="878" y="175" as="sourcePoint" />
            <mxPoint x="719" y="178" as="targetPoint" />
          </mxGeometry>
        </mxCell>
        <mxCell id="JfQ3I1va42cUBEv4WvLF-99" value="" style="endArrow=none;html=1;rounded=0;exitX=1;exitY=0.5;exitDx=0;exitDy=0;entryX=0;entryY=0.5;entryDx=0;entryDy=0;" parent="1" source="JfQ3I1va42cUBEv4WvLF-54" target="s93IzqVQbKGc1_BXv7lj-19" edge="1">
          <mxGeometry relative="1" as="geometry">
            <mxPoint x="888" y="185" as="sourcePoint" />
            <mxPoint x="729" y="188" as="targetPoint" />
          </mxGeometry>
        </mxCell>
        <mxCell id="JfQ3I1va42cUBEv4WvLF-100" value="" style="endArrow=none;html=1;rounded=0;entryX=0.5;entryY=0;entryDx=0;entryDy=0;exitX=1;exitY=0.5;exitDx=0;exitDy=0;" parent="1" source="s93IzqVQbKGc1_BXv7lj-17" target="JfQ3I1va42cUBEv4WvLF-36" edge="1">
          <mxGeometry relative="1" as="geometry">
            <mxPoint x="898" y="195" as="sourcePoint" />
            <mxPoint x="739" y="198" as="targetPoint" />
          </mxGeometry>
        </mxCell>
        <mxCell id="JfQ3I1va42cUBEv4WvLF-101" value="" style="endArrow=none;html=1;rounded=0;entryX=0.5;entryY=0;entryDx=0;entryDy=0;exitX=0;exitY=0.5;exitDx=0;exitDy=0;" parent="1" source="s93IzqVQbKGc1_BXv7lj-17" target="JfQ3I1va42cUBEv4WvLF-35" edge="1">
          <mxGeometry relative="1" as="geometry">
            <mxPoint x="183" y="759" as="sourcePoint" />
            <mxPoint x="749" y="208" as="targetPoint" />
          </mxGeometry>
        </mxCell>
        <mxCell id="JfQ3I1va42cUBEv4WvLF-102" value="" style="endArrow=none;html=1;rounded=0;entryX=1;entryY=0.5;entryDx=0;entryDy=0;exitX=0.25;exitY=1;exitDx=0;exitDy=0;" parent="1" source="s93IzqVQbKGc1_BXv7lj-16" target="JfQ3I1va42cUBEv4WvLF-39" edge="1">
          <mxGeometry relative="1" as="geometry">
            <mxPoint x="918" y="215" as="sourcePoint" />
            <mxPoint x="759" y="218" as="targetPoint" />
          </mxGeometry>
        </mxCell>
        <mxCell id="JfQ3I1va42cUBEv4WvLF-103" value="" style="endArrow=none;html=1;rounded=0;entryX=1;entryY=0.5;entryDx=0;entryDy=0;exitX=0;exitY=0.25;exitDx=0;exitDy=0;" parent="1" source="s93IzqVQbKGc1_BXv7lj-16" target="JfQ3I1va42cUBEv4WvLF-40" edge="1">
          <mxGeometry relative="1" as="geometry">
            <mxPoint x="928" y="225" as="sourcePoint" />
            <mxPoint x="769" y="228" as="targetPoint" />
          </mxGeometry>
        </mxCell>
        <mxCell id="JfQ3I1va42cUBEv4WvLF-104" value="" style="endArrow=none;html=1;rounded=0;entryX=1;entryY=1;entryDx=0;entryDy=0;exitX=0;exitY=0;exitDx=0;exitDy=0;" parent="1" source="s93IzqVQbKGc1_BXv7lj-16" target="JfQ3I1va42cUBEv4WvLF-37" edge="1">
          <mxGeometry relative="1" as="geometry">
            <mxPoint x="938" y="235" as="sourcePoint" />
            <mxPoint x="779" y="238" as="targetPoint" />
          </mxGeometry>
        </mxCell>
        <mxCell id="JfQ3I1va42cUBEv4WvLF-105" value="" style="endArrow=none;html=1;rounded=0;exitX=0.5;exitY=1;exitDx=0;exitDy=0;entryX=0.25;entryY=0;entryDx=0;entryDy=0;" parent="1" source="JfQ3I1va42cUBEv4WvLF-41" target="s93IzqVQbKGc1_BXv7lj-16" edge="1">
          <mxGeometry relative="1" as="geometry">
            <mxPoint x="948" y="245" as="sourcePoint" />
            <mxPoint x="789" y="248" as="targetPoint" />
          </mxGeometry>
        </mxCell>
        <mxCell id="JfQ3I1va42cUBEv4WvLF-106" value="" style="endArrow=none;html=1;rounded=0;entryX=0;entryY=1;entryDx=0;entryDy=0;exitX=1;exitY=0.25;exitDx=0;exitDy=0;" parent="1" source="s93IzqVQbKGc1_BXv7lj-16" target="JfQ3I1va42cUBEv4WvLF-38" edge="1">
          <mxGeometry relative="1" as="geometry">
            <mxPoint x="958" y="255" as="sourcePoint" />
            <mxPoint x="799" y="258" as="targetPoint" />
          </mxGeometry>
        </mxCell>
        <mxCell id="JfQ3I1va42cUBEv4WvLF-107" value="" style="endArrow=none;html=1;rounded=0;entryX=0.5;entryY=1;entryDx=0;entryDy=0;exitX=0.25;exitY=0;exitDx=0;exitDy=0;" parent="1" source="s93IzqVQbKGc1_BXv7lj-20" target="JfQ3I1va42cUBEv4WvLF-47" edge="1">
          <mxGeometry relative="1" as="geometry">
            <mxPoint x="968" y="265" as="sourcePoint" />
            <mxPoint x="809" y="268" as="targetPoint" />
          </mxGeometry>
        </mxCell>
        <mxCell id="JfQ3I1va42cUBEv4WvLF-108" value="" style="endArrow=none;html=1;rounded=0;entryX=0;entryY=1;entryDx=0;entryDy=0;exitX=0.5;exitY=0;exitDx=0;exitDy=0;" parent="1" source="s93IzqVQbKGc1_BXv7lj-20" target="JfQ3I1va42cUBEv4WvLF-48" edge="1">
          <mxGeometry relative="1" as="geometry">
            <mxPoint x="978" y="275" as="sourcePoint" />
            <mxPoint x="819" y="278" as="targetPoint" />
          </mxGeometry>
        </mxCell>
        <mxCell id="JfQ3I1va42cUBEv4WvLF-109" value="" style="endArrow=none;html=1;rounded=0;entryX=0;entryY=0.5;entryDx=0;entryDy=0;exitX=0.75;exitY=0;exitDx=0;exitDy=0;" parent="1" source="s93IzqVQbKGc1_BXv7lj-20" target="JfQ3I1va42cUBEv4WvLF-49" edge="1">
          <mxGeometry relative="1" as="geometry">
            <mxPoint x="988" y="285" as="sourcePoint" />
            <mxPoint x="829" y="288" as="targetPoint" />
          </mxGeometry>
        </mxCell>
        <mxCell id="JfQ3I1va42cUBEv4WvLF-110" value="" style="endArrow=none;html=1;rounded=0;exitX=1;exitY=0.25;exitDx=0;exitDy=0;" parent="1" source="s93IzqVQbKGc1_BXv7lj-20" edge="1">
          <mxGeometry relative="1" as="geometry">
            <mxPoint x="998" y="295" as="sourcePoint" />
            <mxPoint x="547" y="575" as="targetPoint" />
          </mxGeometry>
        </mxCell>
        <mxCell id="JfQ3I1va42cUBEv4WvLF-111" value="" style="endArrow=none;html=1;rounded=0;entryX=1;entryY=0;entryDx=0;entryDy=0;exitX=0;exitY=0.75;exitDx=0;exitDy=0;" parent="1" source="s93IzqVQbKGc1_BXv7lj-20" target="JfQ3I1va42cUBEv4WvLF-42" edge="1">
          <mxGeometry relative="1" as="geometry">
            <mxPoint x="1008" y="305" as="sourcePoint" />
            <mxPoint x="849" y="308" as="targetPoint" />
          </mxGeometry>
        </mxCell>
        <mxCell id="JfQ3I1va42cUBEv4WvLF-112" value="" style="endArrow=none;html=1;rounded=0;entryX=1;entryY=0;entryDx=0;entryDy=0;exitX=0;exitY=1;exitDx=0;exitDy=0;" parent="1" source="s93IzqVQbKGc1_BXv7lj-20" target="JfQ3I1va42cUBEv4WvLF-45" edge="1">
          <mxGeometry relative="1" as="geometry">
            <mxPoint x="436" y="624" as="sourcePoint" />
            <mxPoint x="375" y="646" as="targetPoint" />
          </mxGeometry>
        </mxCell>
        <mxCell id="JfQ3I1va42cUBEv4WvLF-113" value="" style="endArrow=none;html=1;rounded=0;entryX=0.5;entryY=0;entryDx=0;entryDy=0;exitX=0.25;exitY=1;exitDx=0;exitDy=0;" parent="1" source="s93IzqVQbKGc1_BXv7lj-20" target="JfQ3I1va42cUBEv4WvLF-44" edge="1">
          <mxGeometry relative="1" as="geometry">
            <mxPoint x="436" y="630" as="sourcePoint" />
            <mxPoint x="397" y="681" as="targetPoint" />
          </mxGeometry>
        </mxCell>
        <mxCell id="JfQ3I1va42cUBEv4WvLF-114" value="" style="endArrow=none;html=1;rounded=0;entryX=0.5;entryY=0;entryDx=0;entryDy=0;exitX=0.5;exitY=1;exitDx=0;exitDy=0;" parent="1" source="s93IzqVQbKGc1_BXv7lj-20" target="JfQ3I1va42cUBEv4WvLF-51" edge="1">
          <mxGeometry relative="1" as="geometry">
            <mxPoint x="451" y="630" as="sourcePoint" />
            <mxPoint x="424" y="711" as="targetPoint" />
          </mxGeometry>
        </mxCell>
        <mxCell id="JfQ3I1va42cUBEv4WvLF-115" value="" style="endArrow=none;html=1;rounded=0;entryX=0.5;entryY=0;entryDx=0;entryDy=0;exitX=0.75;exitY=1;exitDx=0;exitDy=0;" parent="1" source="s93IzqVQbKGc1_BXv7lj-20" target="JfQ3I1va42cUBEv4WvLF-50" edge="1">
          <mxGeometry relative="1" as="geometry">
            <mxPoint x="465" y="630" as="sourcePoint" />
            <mxPoint x="476" y="742" as="targetPoint" />
          </mxGeometry>
        </mxCell>
        <mxCell id="JfQ3I1va42cUBEv4WvLF-116" value="" style="endArrow=none;html=1;rounded=0;entryX=0;entryY=0;entryDx=0;entryDy=0;exitX=1;exitY=0.75;exitDx=0;exitDy=0;" parent="1" source="s93IzqVQbKGc1_BXv7lj-20" target="JfQ3I1va42cUBEv4WvLF-43" edge="1">
          <mxGeometry relative="1" as="geometry">
            <mxPoint x="480" y="630" as="sourcePoint" />
            <mxPoint x="526" y="707" as="targetPoint" />
          </mxGeometry>
        </mxCell>
        <mxCell id="JD5vQJFaB63icA9YYfT5-3" value="" style="endArrow=none;html=1;rounded=0;entryX=1;entryY=0.25;entryDx=0;entryDy=0;exitX=0;exitY=1;exitDx=0;exitDy=0;" parent="1" source="JfQ3I1va42cUBEv4WvLF-23" target="s93IzqVQbKGc1_BXv7lj-13" edge="1">
          <mxGeometry relative="1" as="geometry">
            <mxPoint x="733" y="442" as="sourcePoint" />
            <mxPoint x="757" y="397" as="targetPoint" />
          </mxGeometry>
        </mxCell>
        <mxCell id="JD5vQJFaB63icA9YYfT5-4" value="" style="endArrow=none;html=1;rounded=0;entryX=0;entryY=0;entryDx=0;entryDy=0;exitX=1;exitY=1;exitDx=0;exitDy=0;" parent="1" source="s93IzqVQbKGc1_BXv7lj-13" target="JfQ3I1va42cUBEv4WvLF-25" edge="1">
          <mxGeometry relative="1" as="geometry">
            <mxPoint x="502" y="398" as="sourcePoint" />
            <mxPoint x="494" y="427" as="targetPoint" />
          </mxGeometry>
        </mxCell>
        <mxCell id="JD5vQJFaB63icA9YYfT5-5" value="" style="endArrow=none;html=1;rounded=0;entryX=0.5;entryY=0;entryDx=0;entryDy=0;exitX=0.5;exitY=1;exitDx=0;exitDy=0;" parent="1" source="s93IzqVQbKGc1_BXv7lj-13" target="JfQ3I1va42cUBEv4WvLF-24" edge="1">
          <mxGeometry relative="1" as="geometry">
            <mxPoint x="494" y="446" as="sourcePoint" />
            <mxPoint x="511" y="463" as="targetPoint" />
          </mxGeometry>
        </mxCell>
        <mxCell id="JD5vQJFaB63icA9YYfT5-6" value="" style="endArrow=none;html=1;rounded=0;entryX=1;entryY=0;entryDx=0;entryDy=0;exitX=0;exitY=1;exitDx=0;exitDy=0;" parent="1" source="s93IzqVQbKGc1_BXv7lj-13" target="JfQ3I1va42cUBEv4WvLF-22" edge="1">
          <mxGeometry relative="1" as="geometry">
            <mxPoint x="477" y="446" as="sourcePoint" />
            <mxPoint x="470" y="484" as="targetPoint" />
          </mxGeometry>
        </mxCell>
      </root>
    </mxGraphModel>
  </diagram>
</mxfile>
